<svg xmlns="http://www.w3.org/2000/svg" viewBox="0 0 500 80.4"><g fill="#FFF"><path d="M20.4 5.1c-4.1 1.3-7.2 3.6-9.4 6.6-2.2 3.1-3.3 6.9-3.3 11.5 0 2 .2 3.4.6 4.2.4.8.6 1.2.6 1.4-5.7 0-8.6-2.4-8.6-7.3 0-3.3 1.3-6.7 3.8-10C6.5 8 9.8 5.3 13.8 3.2c4-2.1 8-3.2 11.9-3.2 2 0 4 .4 6.1 1.1L30 43.5 47.7 1.1h11.6l-8.4 59.2H39.2l5.1-36.1-15 36.1h-11L19.9 24 6.4 60.3H0L20.4 5.1zM60.2 57.6c-2.3-2-3.5-5.3-3.5-9.6 0-3.6.8-7.7 2.3-12.1 1.5-4.4 3.9-8.3 7.2-11.5 3.3-3.2 7.5-4.9 12.5-4.9 6.9 0 10.3 4.3 10.3 12.9v.1c.2.1.5.1.9.1 1.8 0 3.8-.5 6.1-1.4 2.3-.9 4.4-2.1 6.3-3.4l.7 2.2c-1.6 1.7-3.6 3.1-6.1 4.2-2.5 1.2-5.2 2-8.2 2.5-.4 4.9-1.5 9.1-3.3 12.8-1.8 3.6-4 6.5-6.8 8.4-2.8 2-5.8 3-9.1 3-3.8-.3-7-1.3-9.3-3.3zm16.5-6.4c1.3-1.5 2.4-3.5 3.4-6s1.7-5.4 2.1-8.5c-1.4-.3-2.2-1.4-2.2-3.4 0-2.2.8-3.6 2.5-4.3-.1-1.8-.4-3-.8-3.7-.4-.7-1.2-1-2.3-1-1.8 0-3.5 1.3-5.1 3.9-1.7 2.6-3 5.7-4 9.2s-1.5 6.8-1.5 9.5c0 2.6.3 4.3.9 5.2.6.9 1.7 1.3 3.2 1.3 1.2 0 2.5-.7 3.8-2.2z"/><path d="M115 58.2c-1.5-1.7-2.3-3.9-2.3-6.5 0-1.1.1-2.4.4-3.8.3-1.4.5-2.8.8-4.1.3-1.3.5-2.2.6-2.6.4-1.9.8-3.7 1.2-5.5.4-1.8.6-3.3.6-4.4 0-2.7-1-4.1-2.9-4.1-1.4 0-2.6.7-3.7 2.1-1.1 1.4-1.9 3.1-2.6 5.3l-5.5 25.8H90.1l8.5-40.2h11.6l-.9 4.2c2.7-3 5.8-4.5 9.4-4.5 2.7 0 4.9.8 6.5 2.3 1.6 1.5 2.4 3.8 2.4 6.8 0 1.6-.2 3.3-.6 5.2-.4 1.9-.9 4.2-1.6 7-.4 1.7-.8 3.3-1.2 4.9-.3 1.6-.5 2.8-.5 3.7 0 1.1.2 1.9.7 2.5s1.3.9 2.5.9c1.6 0 2.9-.6 3.9-1.7 1-1.2 1.9-2.9 2.9-5.3h3.4c-2 5.9-4.3 9.8-6.9 11.9-2.6 2-5.3 3-8.1 3-3.1-.3-5.5-1.2-7.1-2.9z"/><path d="M135.5 58.4c-1.6-1.6-2.4-4-2.4-7.2 0-1.3.2-3.1.6-5.2l4.8-22.6H136l.6-3.2h2.7L141.7 9l11.9-1.6-2.7 12.7h4.8l-.6 3.2h-4.8l-5.1 24.1c-.2.8-.3 1.7-.3 2.6 0 1.1.3 1.8.8 2.3.5.5 1.4.7 2.5.7 1.6 0 3-.7 4.3-2 1.3-1.3 2.3-3 2.9-5.1h3.4c-2 5.8-4.5 9.7-7.6 11.8-3.1 2.1-6.2 3.1-9.2 3.1-2.8 0-4.9-.8-6.5-2.4z"/><path d="M177.1 58.2c-1.5-1.7-2.3-3.9-2.3-6.5 0-1.1.1-2.4.4-3.8.3-1.4.5-2.8.8-4.1.3-1.3.5-2.2.6-2.6.4-1.9.8-3.7 1.2-5.5.4-1.8.6-3.3.6-4.4 0-2.7-1-4.1-2.9-4.1-1.4 0-2.6.7-3.7 2.1-1.1 1.4-1.9 3.1-2.6 5.3l-5.5 25.8h-11.6l11.7-54.7 12-1.7-4.3 20.3c2.7-3 5.8-4.5 9.4-4.5 2.7 0 4.9.8 6.5 2.3 1.6 1.5 2.4 3.8 2.4 6.8 0 1.6-.2 3.3-.6 5.2-.4 1.9-.9 4.2-1.6 7-.4 1.7-.8 3.3-1.2 4.9-.3 1.6-.5 2.8-.5 3.7 0 1.1.2 1.9.7 2.5.5.6 1.3.9 2.5.9 1.6 0 2.9-.6 3.9-1.7 1-1.2 1.9-2.9 2.9-5.3h3.4c-2 5.9-4.3 9.8-6.9 11.9-2.6 2-5.3 3-8.1 3-3.3-.2-5.7-1.1-7.2-2.8z"/><path d="M197.6 58.4c-1.6-1.6-2.4-4-2.4-7.2 0-1.3.2-3.1.6-5.2l8.6-40.3 12-1.7-9.2 43.4c-.2.8-.3 1.7-.3 2.6 0 1.1.3 1.8.8 2.3.5.5 1.4.7 2.5.7 1.6 0 3-.7 4.3-2 1.3-1.3 2.3-3 2.9-5.1h3.4c-2 5.8-4.5 9.7-7.6 11.8-3.1 2.1-6.2 3.1-9.2 3.1-2.7 0-4.8-.8-6.4-2.4z"/><path d="M223.3 78c-1.9-1.6-2.9-3.7-2.9-6.2 0-2.4.6-4.3 1.8-5.8 1.2-1.5 2.7-2.7 4.6-3.5 1.9-.9 4.4-1.8 7.6-2.7l.8-3.5c-2.7 3.1-6 4.7-9.8 4.7-2.6 0-4.7-.8-6.2-2.4-1.6-1.6-2.4-4-2.4-7.2 0-1.3.2-3.1.6-5.2l5.5-25.8h11.6l-5.8 27.3c-.2.6-.2 1.3-.2 2 0 2.4.8 3.5 2.4 3.5 1.5 0 2.8-.6 3.9-1.9 1.1-1.3 1.9-3 2.6-5.2l5.5-25.8h11.7l-9.8 46.6c-1.1 5.1-3 8.7-5.7 10.7s-5.7 3-9 3c-2.7-.2-4.9-1-6.8-2.6zm7.5-6.2c.9-1 1.5-2.6 2-4.8l1-4.7c-2.8 1-5 2.1-6.6 3.4-1.6 1.3-2.3 2.9-2.3 5 0 .6.3 1.2 1 1.8.6.6 1.4.8 2.3.8.8 0 1.7-.5 2.6-1.5zM297.3 60.4c-1.6-.9-2.4-2.4-2.4-4.6 0-1.4.3-2.9 1-4.7 1 1.1 1.9 1.8 2.7 2.3.8.4 1.7.6 2.7.6 2.7 0 4.7-1.5 6-4.5 1.3-3 2-6.3 2-10 0-6.8-2.5-10.2-7.6-10.2-1.4 0-2.7.1-3.7.2l-6.6 30.8h-11.6l10.9-51.1 11.9-1.6-3.8 17.9h.5c2 0 3.9-.7 5.7-2 1.8-1.3 3.2-3 4.3-5 1.1-2 1.6-4 1.6-6.1 0-2.5-.9-4.5-2.6-6.2-1.7-1.7-4.4-2.5-8-2.5-3.3 0-6.5.7-9.6 2.2-3.1 1.5-5.6 3.7-7.6 6.6-2 2.9-2.9 6.5-2.9 10.7 0 2 .2 3.4.6 4.1.4.8.6 1.2.6 1.3-2.8 0-5-.6-6.4-1.7-1.4-1.2-2.2-3-2.2-5.7 0-3.6 1.4-7.1 4.1-10.4 2.7-3.3 6.4-5.9 10.9-7.9s9.2-3 14.2-3c3.8 0 6.9.6 9.5 1.8 2.6 1.2 4.5 2.7 5.8 4.7 1.3 1.9 1.9 4 1.9 6.4 0 2.5-.7 4.9-2.1 7.2-1.4 2.3-3.4 4.2-6 5.6 3.2.6 5.6 2.1 7.2 4.5 1.6 2.4 2.3 5.2 2.3 8.5 0 3.1-.6 6.4-1.7 10-1.2 3.6-3.1 6.7-5.7 9.3-2.7 2.6-6 3.9-10.2 3.9-2.2-.1-4.1-.6-5.7-1.4zM325.1 58.4c-1.6-1.6-2.4-4-2.4-7.2 0-1.3.2-3.1.6-5.2l5.5-25.8h11.6l-5.8 27.3c-.2.8-.2 1.6-.2 2.3 0 2.2.8 3.3 2.4 3.3 1.5 0 2.8-.6 3.9-1.9 1.1-1.3 1.9-3 2.6-5.2l5.5-25.8h11.6l-5.8 27.3c-.2.8-.3 1.7-.3 2.6 0 1.1.3 1.8.8 2.3.5.5 1.4.7 2.5.7 1.5 0 2.8-.6 3.9-1.9 1.1-1.3 2-3 2.6-5.1h3.4c-2 5.8-4.4 9.7-7.4 11.8-2.9 2.1-5.9 3.1-8.8 3.1-2.3 0-4.1-.6-5.5-1.9-1.4-1.3-2.2-3.2-2.5-5.7-1.8 2.9-3.7 5-5.7 6-2 1.1-4.1 1.6-6.2 1.6-2.7-.2-4.8-1-6.3-2.6z"/><path d="M366 57.7c-2-2.1-3.1-5.4-3.1-9.8 0-4 .8-8.1 2.4-12.5 1.6-4.4 3.9-8.1 7.1-11.1 3.1-3 6.9-4.5 11.2-4.5 2.2 0 3.8.4 4.9 1.1 1.1.8 1.6 1.7 1.6 3v.3L394 5.6 405.9 4l-9.2 43.4c-.2.8-.3 1.7-.3 2.6 0 1.1.3 1.8.8 2.3.5.5 1.4.7 2.5.7 1.5 0 2.8-.6 3.9-1.9 1.1-1.3 2-3 2.6-5.1h3.4c-3.3 9.6-8.7 14.4-16.2 14.4-2.2 0-4-.6-5.3-1.8-1.4-1.2-2.2-2.9-2.5-5.1-1.4 2.1-3.1 3.9-5 5.3-2 1.4-4.2 2.1-6.9 2.1-3.2-.1-5.7-1.2-7.7-3.2zm16.7-6.5c1.3-1.2 2.2-2.8 2.7-4.9v-.4l3.9-18.4c-.5-1.9-1.6-2.8-3.3-2.8-2.1 0-4.1 1.2-5.8 3.7-1.7 2.5-3.1 5.5-4 9-1 3.5-1.4 6.6-1.4 9.3 0 2.7.4 4.4 1.2 5.1.8.8 1.7 1.1 2.9 1.1 1.2.1 2.5-.5 3.8-1.7z"/><path d="M414 78.4c-1.7-1.3-2.6-3.3-2.6-5.8 0-3.1 1.2-5.5 3.7-7.4 2.5-1.8 5.6-3.4 9.4-4.6l1-4.3c-2.7 2.9-6 4.4-9.6 4.4-3.1 0-5.6-1-7.6-3.1s-3.1-5.4-3.1-9.8c0-4 .8-8.1 2.4-12.5 1.6-4.4 3.9-8.1 7.1-11.1 3.1-3 6.9-4.5 11.2-4.5 2.2 0 3.8.4 4.9 1.1 1.1.8 1.6 1.7 1.6 3v.5l.9-4.2h11.6l-8 37.3c2.6-.9 4.6-2.1 6.2-3.9 1.6-1.7 2.9-4.3 3.9-7.6h3.4c-1.4 4.8-3.4 8.3-5.9 10.5-2.5 2.2-5.3 3.7-8.4 4.5l-1.2 5.8c-1.1 5.2-2.9 8.8-5.5 10.7-2.6 2-5.6 2.9-8.9 2.9-2.7.1-4.8-.6-6.5-1.9zm7.2-6.1c.9-1.2 1.5-3 2-5.3l.5-2.3c-5.3 1.9-7.9 4.2-7.9 6.8 0 .7.2 1.3.7 1.8.5.5 1.2.8 2 .8 1 0 1.8-.6 2.7-1.8zm3.6-21c1.3-1.1 2.2-2.7 2.7-4.6l4.1-19.1c0-.6-.3-1.3-.8-2s-1.4-1-2.5-1c-2.1 0-4.1 1.2-5.8 3.7-1.7 2.5-3.1 5.5-4 9-1 3.5-1.4 6.6-1.4 9.3 0 2.7.4 4.4 1.2 5.1.8.8 1.7 1.1 2.9 1.1 1.1.2 2.3-.4 3.6-1.5z"/><path d="M449.2 57.7c-2.2-2.1-3.3-5.3-3.3-9.7 0-3.7.7-7.8 2.2-12.2 1.4-4.4 3.8-8.3 7.1-11.5 3.3-3.2 7.4-4.9 12.5-4.9 5.9 0 8.8 2.6 8.8 7.7 0 3-.9 5.8-2.6 8.3-1.7 2.5-4 4.5-6.8 6.1-2.8 1.5-5.9 2.4-9.1 2.6-.1 1.6-.2 2.7-.2 3.2 0 2.6.5 4.4 1.4 5.3.9.9 2.4 1.4 4.4 1.4 2.9 0 5.4-.7 7.4-2 2.1-1.3 4.3-3.4 6.8-6.1h2.7c-6 9.9-13.3 14.9-22.1 14.9-3.9 0-7-1-9.2-3.1zm15.1-19.6c1.8-1.3 3.2-2.9 4.3-4.9 1.1-2 1.6-4.1 1.6-6.3s-.7-3.3-2-3.3c-1.9 0-3.8 1.7-5.7 5.1-1.8 3.4-3.2 7.2-4 11.5 2.1-.1 4-.8 5.8-2.1z"/><path d="M479.3 58.3c-1.3-1.7-2-3.9-2-6.6 0-1.4.2-2.8.5-4.3l5.1-24.1h-2.7l.6-3.2h2.7L486 9l11.9-1.6c-.5 2-.8 3.2-.8 3.6-.4 1.5-1 4.5-1.9 9.1h4.8l-.6 3.2h-4.8l-5.1 24.1c-.3 1.2-.4 2.1-.4 2.8 0 1.9.9 2.9 2.8 2.9 1 0 1.7-.1 2.1-.2-1.1 3.1-2.3 5.2-3.8 6.3-1.4 1.1-3 1.6-4.7 1.6-2.9 0-4.9-.8-6.2-2.5z"/></g></svg>